<svg id="Layer_1" data-name="Layer 1" xmlns="http://www.w3.org/2000/svg" viewBox="0 0 512 512"><defs><style>.cls-1{fill:#dfe5e8;}.cls-2{fill:#d0d9dd;}.cls-3{fill:#adb8bc;}.cls-4{fill:#899396;}.cls-5{fill:#f4536a;}.cls-6{fill:#74c666;}.cls-7{fill:#54af47;}.cls-8{fill:#ee374b;}</style></defs><title>snowman-flat</title><path class="cls-1" d="M256,40A106.67,106.67,0,1,0,362.67,146.67,106.79,106.79,0,0,0,256,40Z"/><path class="cls-2" d="M313.62,57A106.5,106.5,0,0,1,166.38,204.29,106.58,106.58,0,1,0,313.62,57Z"/><path class="cls-3" d="M464,210.67H447.08l19.13-19.12a10.67,10.67,0,0,0-15.08-15.08L432,195.58V178.67a10.67,10.67,0,1,0-21.33,0v38.25L365,262.59a10.67,10.67,0,1,0,15.08,15.08L425.75,232H464a10.67,10.67,0,1,0,0-21.33Z"/><path class="cls-3" d="M149.3,259.55l-42.64-42.64V178.67a10.67,10.67,0,0,0-21.33,0v16.92L66.21,176.46a10.67,10.67,0,0,0-15.08,15.08l19.13,19.13H53.33a10.67,10.67,0,0,0,0,21.33H91.58l42.64,42.64a10.67,10.67,0,1,0,15.08-15.08Z"/><path class="cls-1" d="M256,200c-85.28,0-154.67,69.38-154.67,154.67S170.72,509.33,256,509.33,410.67,440,410.67,354.67,341.28,200,256,200Z"/><path class="cls-2" d="M345,228.31a153.76,153.76,0,0,1,28.31,89c0,85.28-69.39,154.67-154.67,154.67a153.76,153.76,0,0,1-89-28.31A154.55,154.55,0,0,0,256,509.33c85.28,0,154.67-69.38,154.67-154.67A154.55,154.55,0,0,0,345,228.31Z"/><circle class="cls-4" cx="229.33" cy="125.33" r="10.67"/><circle class="cls-4" cx="282.67" cy="125.33" r="10.67"/><circle class="cls-5" cx="256" cy="157.33" r="10.67"/><path class="cls-1" d="M21.33,509.33H10.67a10.67,10.67,0,1,1,0-21.33H21.33a10.67,10.67,0,1,1,0,21.33Z"/><path class="cls-1" d="M101.33,509.33H58.67a10.67,10.67,0,1,1,0-21.33h42.67a10.67,10.67,0,1,1,0,21.33Z"/><path class="cls-1" d="M501.33,509.33h-32a10.67,10.67,0,0,1,0-21.33h32a10.67,10.67,0,1,1,0,21.33Z"/><path class="cls-1" d="M432,509.33H138.67a10.67,10.67,0,1,1,0-21.33H432a10.67,10.67,0,1,1,0,21.33Z"/><circle class="cls-4" cx="256" cy="322.67" r="10.67"/><circle class="cls-4" cx="256" cy="365.33" r="10.67"/><circle class="cls-4" cx="256" cy="408" r="10.67"/><path class="cls-5" d="M348.59,242.93a10.72,10.72,0,0,1-9.07,5.07h-167a10.67,10.67,0,0,1-9.55-15.41,35.76,35.76,0,0,0,.37-33.17,10.53,10.53,0,0,1,.48-10.35,10.65,10.65,0,0,1,9.07-5.07H339.15a10.65,10.65,0,0,1,9.07,5.07,10.53,10.53,0,0,1,.48,10.35,35.76,35.76,0,0,0,.37,33.17A10.81,10.81,0,0,1,348.59,242.93Z"/><path class="cls-6" d="M298.67,2.67H213.33A21.36,21.36,0,0,0,192,24V66.67a10.67,10.67,0,0,0,10.67,10.67H309.33A10.67,10.67,0,0,0,320,66.67V24A21.36,21.36,0,0,0,298.67,2.67Z"/><path class="cls-6" d="M341.33,77.33H170.67a10.67,10.67,0,1,1,0-21.33H341.33a10.67,10.67,0,1,1,0,21.33Z"/><path class="cls-7" d="M320,56V24A21.36,21.36,0,0,0,298.67,2.67H272V56Z"/><polygon class="cls-8" points="312.71 184 295.88 184 230.25 184 222.93 184 240.89 248 248.21 248 313.83 248 330.67 248 312.71 184"/><path class="cls-5" d="M323.15,281.17a10.77,10.77,0,0,1-8.48,4.16H272a10.63,10.63,0,0,1-10.29-7.89L253.87,248l-13.49-50.56c-.48-1.81-2.45-7.95-3.68-13.44h64.85l17.07,64L325,271.89A10.86,10.86,0,0,1,323.15,281.17Z"/></svg>