<svg id="Layer_1" data-name="Layer 1" xmlns="http://www.w3.org/2000/svg" viewBox="0 0 512 512"><defs><style>.cls-1{fill:#ffc84d;}.cls-2{fill:#ffb232;}.cls-3{fill:#8f9b9e;}.cls-4{fill:#adb8bc;}</style></defs><title>bell-flat</title><path class="cls-1" d="M398,413.37l-6.6-21.14a324.69,324.69,0,0,1-14.74-96.93V282.67c0-70.58-54.1-128-120.61-128s-120.61,57.42-120.61,128v12.63a324.69,324.69,0,0,1-14.74,96.93L114,413.37a44.36,44.36,0,0,0,6.45,39.39,39.72,39.72,0,0,0,32.18,16.58H359.32a39.72,39.72,0,0,0,32.18-16.58A44.36,44.36,0,0,0,398,413.37Z"/><path class="cls-2" d="M398,413.37l-6.6-21.14a324.69,324.69,0,0,1-14.74-96.93V282.67c0-70.58-54.1-128-120.61-128a113.8,113.8,0,0,0-31.3,4.4c57.1,17.75,98.86,73.89,98.86,140.55v15.77a419.52,419.52,0,0,0,19,125l8.25,26.4c.27.85.39,1.71.59,2.56h7.92a39.72,39.72,0,0,0,32.18-16.58A44.36,44.36,0,0,0,398,413.37Z"/><path class="cls-2" d="M203.74,469.33a53.34,53.34,0,0,0,104.52,0Z"/><path class="cls-3" d="M256,154.67a114,114,0,0,1,48,10.6V133.33a10.67,10.67,0,0,0-10.67-10.67H218.67A10.67,10.67,0,0,0,208,133.33v31.94A114,114,0,0,1,256,154.67Z"/><path class="cls-4" d="M256,112a10.68,10.68,0,0,1,10.67,10.67H288A32,32,0,0,0,266.67,92.5V10.67a10.67,10.67,0,0,0-21.33,0V92.5A32,32,0,0,0,224,122.67h21.33A10.68,10.68,0,0,1,256,112Z"/></svg>