<svg id="Layer_1" data-name="Layer 1" xmlns="http://www.w3.org/2000/svg" viewBox="0 0 512 512"><defs><style>.cls-1{fill:#74c666;}.cls-2{fill:#ffc84d;}.cls-3{fill:#ffb232;}.cls-4{fill:#adb8bc;}</style></defs><title>star-tree-topper-flat</title><rect class="cls-1" x="240" y="362.67" width="32" height="144" rx="16" ry="16"/><path class="cls-2" d="M290.67,385.71a10.73,10.73,0,0,1-8,3.63H229.33a10.73,10.73,0,0,1-8-3.63,10.45,10.45,0,0,1-2.56-8.37L229.44,292A10.61,10.61,0,0,1,240,282.67h32A10.61,10.61,0,0,1,282.56,292l10.67,85.33A10.45,10.45,0,0,1,290.67,385.71Z"/><path class="cls-3" d="M290.67,385.71a10.73,10.73,0,0,1-8,3.63H254.93V282.67H272A10.61,10.61,0,0,1,282.56,292l10.67,85.33A10.45,10.45,0,0,1,290.67,385.71Z"/><path class="cls-4" d="M500.42,224l8.46-8.46a10.67,10.67,0,0,0-15.08-15.08l-8.46,8.46-8.46-8.46a10.67,10.67,0,0,0-15.08,15.08l8.46,8.46-8.46,8.46a10.67,10.67,0,1,0,15.08,15.08l8.46-8.46,8.46,8.46a10.67,10.67,0,0,0,15.08-15.08Z"/><path class="cls-4" d="M41.75,133.33l8.46-8.46a10.67,10.67,0,0,0-15.08-15.08l-8.46,8.46-8.46-8.46A10.67,10.67,0,1,0,3.13,124.88l8.46,8.46-8.46,8.46a10.67,10.67,0,1,0,15.08,15.08l8.46-8.46,8.46,8.46a10.67,10.67,0,1,0,15.08-15.08Z"/><circle class="cls-4" cx="432" cy="309.33" r="10.67"/><circle class="cls-4" cx="138.67" cy="26.67" r="10.67"/><circle class="cls-4" cx="384" cy="21.33" r="16"/><circle class="cls-4" cx="37.33" cy="282.67" r="16"/><path class="cls-2" d="M396.19,153.49a26.52,26.52,0,0,0-23.88-14.8H310L279.71,76.83a26.52,26.52,0,0,0-23.8-15h-.17a26.54,26.54,0,0,0-23.84,14.7l-31.18,62.12H139.78a26.64,26.64,0,0,0-20.56,43.57l50,60.9-13.51,67.48a26.65,26.65,0,0,0,39,28.58l60.72-33.73,66.46,35a26.47,26.47,0,0,0,28.43-2.23,26.41,26.41,0,0,0,10.15-26.59L346.7,242.92l46.85-61.42A26.55,26.55,0,0,0,396.19,153.49Z"/><path class="cls-3" d="M350.28,338.21a.05.05,0,0,0-.05.05L255.3,213.36l91.95,32.16,13.23,66.13A26.4,26.4,0,0,1,350.28,338.21ZM396.2,153.52a26.58,26.58,0,0,0-23.89-14.83H312.2L255.3,213.36l141.44-58.51v-.05A6.53,6.53,0,0,0,396.2,153.52Zm-164.27-77-31.2,62.13h-3.15l57.71,74.67V61.89A26.49,26.49,0,0,0,231.94,76.56Zm23.36,136.8-140.16-58a26.22,26.22,0,0,0,4.05,26.88l50,60.91-.53,2.67ZM165.16,336.66a11.23,11.23,0,0,0,.91.75,26.44,26.44,0,0,0,28.69,1.81l60.53-33.65V213.36Z"/></svg>