<svg id="Layer_1" data-name="Layer 1" xmlns="http://www.w3.org/2000/svg" viewBox="0 0 512 512"><defs><style>.cls-1{fill:#f4536a;}.cls-2{fill:#ee374b;}.cls-3{fill:#74c666;}.cls-4{fill:#54af47;}</style></defs><title>sock-flat</title><path class="cls-1" d="M370.3,260.45h0l-42.85-135a31,31,0,0,1-12.27,7.34h0L197.67,170.07a31.23,31.23,0,0,1-9.48,1.48,30.78,30.78,0,0,1-4.77-.39l28,88.31L146.76,383.31A89.24,89.24,0,0,0,137,417.44c-2.77,33.8,13.8,66.31,42.24,82.84a86.55,86.55,0,0,0,120.47-35.06l63.75-123.48a106.66,106.66,0,0,0,6.86-81.3Z"/><path class="cls-2" d="M370.3,260.45h0l-42.85-135a31,31,0,0,1-12.27,7.34h0l-24.52,7.78,38,119.9h0a106.66,106.66,0,0,1-6.86,81.3L258.09,465.23A86.15,86.15,0,0,1,202,509.44,87.18,87.18,0,0,0,222.83,512a86.39,86.39,0,0,0,76.85-46.77l63.75-123.48a106.66,106.66,0,0,0,6.86-81.3Z"/><path class="cls-3" d="M325.36,80.33,309.13,66.6C330.45,41.39,329.36,29.92,328.52,27a7.66,7.66,0,0,0-4-4.7l-3-.94A7.81,7.81,0,0,0,315.09,23c-2.86,2.39-9.28,11.1-7.28,40.4l-21.21,1.45c-2-29.28,3.22-49,15.53-58.73a28.9,28.9,0,0,1,25.65-5.09l3,.94A28.72,28.72,0,0,1,348.94,21.1C353.49,36.82,345.78,56.19,325.36,80.33Z"/><path class="cls-3" d="M335.49,93.56l-5.87-18.5A31.29,31.29,0,0,0,290.4,54.75L172.9,92a31.27,31.27,0,0,0-20.32,39.22l5.87,18.49a31.16,31.16,0,0,0,39.21,20.32l117.51-37.29h0A31.27,31.27,0,0,0,335.49,93.56Z"/><rect class="cls-4" x="189.87" y="85.31" width="21.27" height="81.82" transform="translate(-28.8 66.61) rotate(-17.62)"/><rect class="cls-4" x="233.41" y="71.49" width="21.27" height="81.83" transform="translate(-22.58 79.16) rotate(-17.62)"/><rect class="cls-4" x="275.72" y="58.04" width="21.27" height="81.88" transform="translate(-16.53 91.28) rotate(-17.61)"/><path class="cls-3" d="M370.3,260.45l-11.07-34.88a71.39,71.39,0,0,0-4.14,132.35l8.35-16.17a106.66,106.66,0,0,0,6.86-81.3Z"/><path class="cls-3" d="M223.36,421.36a96.05,96.05,0,0,0-73.85-6.41,94.8,94.8,0,0,0-11.61,4.6l-1,.49c-1.73,32.86,14.65,64.14,42.36,80.25a86.84,86.84,0,0,0,93.44-4c.72-.5,1.35-1.11,2.05-1.63a95.86,95.86,0,0,0-51.35-73.25Z"/><path class="cls-4" d="M274.71,494.61c-.7.52-1.34,1.13-2.05,1.63A86.26,86.26,0,0,1,222.83,512c-1.78,0-3.56-.06-5.34-.17-1.46-.09-2.92-.24-4.37-.41l-.8-.08a89,89,0,0,1-10.29-1.9h0a86.15,86.15,0,0,0,56.06-44.22l3.82-7.4a97.81,97.81,0,0,1,9.23,20.37A96.27,96.27,0,0,1,274.71,494.61ZM370.3,260.45h0l-11.07-34.88a70.67,70.67,0,0,0-33.48,25.58l3,9.31h0a106.07,106.07,0,0,1-3.19,73.25,71.14,71.14,0,0,0,29.58,24.22l8.35-16.17a106.66,106.66,0,0,0,6.86-81.3Z"/></svg>