<svg id="Layer_1" data-name="Layer 1" xmlns="http://www.w3.org/2000/svg" viewBox="0 0 512 512"><title>reindeer</title><rect width="512" height="512" fill="#009345"/><path d="M365.68,202.7c-41.5-9-62,14.51-69.39,26a90.9,90.9,0,0,0-15.43-11.57,133.06,133.06,0,0,0,23.23-27.41l42.84-7.69-2-11.32-33.65,6a125.91,125.91,0,0,0,5.29-12.95l34.74-20.25-5.8-9.94L320.83,148c3.92-19.47,2-33.67,1.78-34.89l-11.36,1.7a91.91,91.91,0,0,1-.4,23.29l-14.09-13L289,133.6l19.3,17.77a112.88,112.88,0,0,1-15.53,34.71L267.9,153.59l-9.14,7,26.84,35.09a128,128,0,0,1-16.12,16.18A42.48,42.48,0,0,0,256,209.43a43.24,43.24,0,0,0-13.55,2.38,127.09,127.09,0,0,1-16-16.13l26.81-35.09-9.13-7-24.85,32.49a113.07,113.07,0,0,1-15.53-34.71L223,133.6l-7.81-8.46-14.08,13a91.68,91.68,0,0,1-.38-23.29l-11.39-1.7c-.18,1.22-2.13,15.42,1.79,34.89l-24.63-14.36-5.8,9.94,34.75,20.25a120.81,120.81,0,0,0,5.29,12.95l-33.66-6-2,11.32,42.84,7.69A133.1,133.1,0,0,0,231,217.06a89.3,89.3,0,0,0-15.46,11.41c-7.52-11.62-28-34.67-69.23-25.78,0,0,11.49,45.28,59.3,35.8-19.27,22.14-33.41,53.34-33.41,80.66,0,88.11,83.8,79.5,83.8,79.5s83.8,8.61,83.8-79.5c0-26.74-14.47-58.36-34-80.78C354.1,248.35,365.68,202.7,365.68,202.7ZM209.79,289a9.24,9.24,0,1,1,9.25-9.24A9.24,9.24,0,0,1,209.79,289Zm47.75,70.87c-14.79,0-26.8-10.48-26.8-23.42s12-23.41,26.8-23.41,26.83,10.47,26.83,23.41S272.35,359.84,257.54,359.84Zm53.92-80.11a9.25,9.25,0,1,1-9.22-9.24A9.23,9.23,0,0,1,311.46,279.72Z" fill="#fff"/></svg>