<svg id="Layer_1" data-name="Layer 1" xmlns="http://www.w3.org/2000/svg" viewBox="0 0 512 512"><defs><style>.cls-1{fill:#74c666;}.cls-2{fill:#54af47;}.cls-3{fill:#ffc84d;}.cls-4{fill:#f4536a;}.cls-5{fill:#d82b45;}.cls-6{fill:#ee374b;}.cls-7{fill:#3c912d;}</style></defs><title>wreath-flat</title><path class="cls-1" d="M504.3,243.83c-20.87-27.38-25.95-52.31-17-83.37a11.13,11.13,0,0,0-5.46-12.9c-28.77-15.34-42.37-35.49-45.48-67.38a11.11,11.11,0,0,0-10-10c-31.89-3.11-52-16.7-67.38-45.48a11.14,11.14,0,0,0-12.9-5.46c-31.07,9-56,3.9-83.37-17a11.15,11.15,0,0,0-13.49,0c-27.37,20.87-52.3,26-83.37,17A11.14,11.14,0,0,0,153,24.71C137.64,53.48,117.49,67.08,85.6,70.18a11.11,11.11,0,0,0-10,10c-3.11,31.89-16.7,52-45.48,67.38a11.13,11.13,0,0,0-5.46,12.9c9,31.06,3.89,56-17,83.37a11.13,11.13,0,0,0,0,13.49c20.87,27.38,25.95,52.31,17,83.37a11.13,11.13,0,0,0,5.46,12.9C58.9,368.94,72.5,389.08,75.61,421a11.11,11.11,0,0,0,10,10c31.89,3.11,52,16.7,67.38,45.48a11.16,11.16,0,0,0,12.9,5.46c31.08-9,56-3.9,83.37,17a11.14,11.14,0,0,0,13.49,0c27.37-20.87,52.31-26,83.37-17a11.16,11.16,0,0,0,12.9-5.46c15.34-28.77,35.49-42.37,67.38-45.48a11.11,11.11,0,0,0,10-10c3.11-31.89,16.7-52,45.48-67.38a11.13,11.13,0,0,0,5.46-12.9c-9-31.06-3.89-56,17-83.37A11.13,11.13,0,0,0,504.3,243.83Zm-170.88,6.75c-12.19,18.34-19.32,35.33-22.85,54.57C291.33,308.68,274.34,315.81,256,328c-18.34-12.19-35.33-19.32-54.57-22.85-3.54-19.23-10.66-36.23-22.85-54.57,12.19-18.34,19.32-35.33,22.85-54.57,19.23-3.54,36.23-10.66,54.57-22.85,18.34,12.19,35.33,19.32,54.57,22.85C314.1,215.24,321.23,232.24,333.42,250.57Z"/><path class="cls-2" d="M504.3,243.83c-20.87-27.38-25.95-52.31-17-83.37a11.13,11.13,0,0,0-5.46-12.9c-28.77-15.34-42.37-35.49-45.48-67.38a11.11,11.11,0,0,0-10-10c-31.89-3.11-52-16.7-67.38-45.48a11.14,11.14,0,0,0-12.9-5.46c-31.07,9-56,3.9-83.37-17a11.15,11.15,0,0,0-13.49,0,113.34,113.34,0,0,1-26.49,15.49c17.93,7.18,36,7.53,56.89,1.49a11.14,11.14,0,0,1,12.9,5.46C307.89,53.48,328,67.08,359.93,70.18a11.11,11.11,0,0,1,10,10c3.11,31.89,16.7,52,45.48,67.38a11.13,11.13,0,0,1,5.46,12.9c-9,31.06-3.89,56,17,83.37a11.13,11.13,0,0,1,0,13.49c-20.87,27.38-25.95,52.31-17,83.37a11.13,11.13,0,0,1-5.46,12.9C386.63,368.94,373,389.08,369.92,421a11.11,11.11,0,0,1-10,10c-31.89,3.11-52,16.7-67.38,45.48a11.16,11.16,0,0,1-12.9,5.46c-20.86-6-39-5.69-56.88,1.49a113.31,113.31,0,0,1,26.48,15.49,11.14,11.14,0,0,0,13.49,0c27.37-20.87,52.31-26,83.37-17a11.16,11.16,0,0,0,12.9-5.46c15.34-28.77,35.49-42.37,67.38-45.48a11.11,11.11,0,0,0,10-10c3.11-31.89,16.7-52,45.48-67.38a11.13,11.13,0,0,0,5.46-12.9c-9-31.06-3.89-56,17-83.37A11.13,11.13,0,0,0,504.3,243.83Z"/><circle class="cls-3" cx="256" cy="94.83" r="22.25"/><circle class="cls-3" cx="389.49" cy="172.7" r="22.25"/><circle class="cls-3" cx="122.51" cy="172.7" r="22.25"/><path class="cls-4" d="M263.47,431.45c-2.88-2.62-71.34-64.07-129-64.07A11.13,11.13,0,0,0,124.33,374c-1.18,2.68-28.65,66.42,0,131.35A11.13,11.13,0,0,0,134.51,512c57.63,0,126.08-61.45,129-64.07a11.11,11.11,0,0,0,0-16.48Z"/><path class="cls-4" d="M387.67,374a11.13,11.13,0,0,0-10.18-6.63c-57.63,0-126.08,61.45-129,64.07a11.11,11.11,0,0,0,0,16.48c2.88,2.62,71.34,64.07,129,64.07a11.13,11.13,0,0,0,10.18-6.63C416.32,440.44,388.86,376.7,387.67,374Z"/><path class="cls-5" d="M328.31,450.82H289.37a11.12,11.12,0,0,1,0-22.25h38.94a11.12,11.12,0,0,1,0,22.25Z"/><path class="cls-5" d="M222.63,450.82H183.69a11.12,11.12,0,0,1,0-22.25h38.94a11.12,11.12,0,0,1,0,22.25Z"/><rect class="cls-6" x="211.5" y="395.19" width="89" height="89" rx="24.8" ry="24.8"/><circle class="cls-3" cx="395.06" cy="311.76" r="22.25"/><circle class="cls-3" cx="116.94" cy="311.76" r="22.25"/><circle class="cls-7" cx="178.13" cy="117.08" r="11.12"/><circle class="cls-7" cx="411.74" cy="239.45" r="11.12"/><circle class="cls-7" cx="100.26" cy="239.45" r="11.12"/><circle class="cls-7" cx="333.87" cy="117.08" r="11.12"/></svg>