<svg id="Layer_1" data-name="Layer 1" xmlns="http://www.w3.org/2000/svg" viewBox="0 0 512 512"><defs><style>.cls-1{fill:#74c666;}.cls-2{fill:#54af47;}.cls-3{fill:#fff;}.cls-4{fill:#ffc84d;}.cls-5{fill:#ffb232;}.cls-6{fill:#adb8bc;}.cls-7{fill:#f4536a;}.cls-8{fill:#ee374b;}</style></defs><title>santa-sleigh-flat</title><path class="cls-1" d="M274.67,58.67a31.87,31.87,0,0,0-21.33,8.17A32,32,0,1,0,232,122.67h42.67a32,32,0,0,0,0-64Zm-53.33,32a10.67,10.67,0,0,1,21.33,0v10.67H232A10.68,10.68,0,0,1,221.33,90.67Zm53.33,10.67H264V90.67a10.67,10.67,0,1,1,10.67,10.67Z"/><rect class="cls-1" x="165.33" y="101.33" width="176" height="160" rx="10.67" ry="10.67"/><rect class="cls-2" x="234.67" y="101.33" width="37.33" height="138.67"/><path class="cls-3" d="M349.33,202.67H328a21.33,21.33,0,1,1,21.33-21.33Z"/><path class="cls-4" d="M370.67,149.33a31.87,31.87,0,0,0-21.33,8.17A32,32,0,1,0,328,213.33h42.67a32,32,0,0,0,0-64Zm-53.33,32a10.67,10.67,0,0,1,21.33,0V192H328A10.68,10.68,0,0,1,317.33,181.33ZM370.67,192H360V181.33A10.67,10.67,0,1,1,370.67,192Z"/><rect class="cls-4" x="261.33" y="192" width="176" height="154.67" rx="10.67" ry="10.67"/><rect class="cls-5" x="330.67" y="192" width="37.33" height="144"/><path class="cls-6" d="M21.33,453.33H10.67a10.67,10.67,0,1,1,0-21.33H21.33a10.67,10.67,0,1,1,0,21.33Z"/><path class="cls-7" d="M505.58,253.26A27.76,27.76,0,0,0,481.81,240H466.31a43.62,43.62,0,0,0-37.2,20.7c-7.55,12.45-21,27.3-42,27.3H344.44c-41.87,0-67.15,0-91.29-67.59-29.19-81.73-90-81.73-237-81.74a12.81,12.81,0,0,0-9.18,21.79c8.83,8.94,29,33.44,25.15,67.7-.8,7.23-2.59,16.17-4.48,25.63-7,35.15-15.79,78.9,8.17,108.14,15.12,18.44,40.06,27.41,76.24,27.41H387.88a103.77,103.77,0,0,0,93.32-57.67l25.61-51.21A27.77,27.77,0,0,0,505.58,253.26Z"/><path class="cls-4" d="M144.43,228.19,153,254.46H180.6a6.06,6.06,0,0,1,3.56,11L161.8,281.66l8.54,26.28a6.06,6.06,0,0,1-9.32,6.77l-22.35-16.24-22.35,16.24a6.06,6.06,0,0,1-9.32-6.77l8.54-26.28L93.18,265.42a6.06,6.06,0,0,1,3.56-11h27.63l8.54-26.28A6.06,6.06,0,0,1,144.43,228.19Z"/><path class="cls-8" d="M14.91,138.84c.4,0,.78-.18,1.19-.18,147,0,207.86,0,237,81.74,22.2,62.15,45.37,67.15,81.51,67.55-.3,0-.58,0-.89,0H291.1c-41.87,0-67.15,0-91.29-67.59C174.35,149.11,124.77,140,14.91,138.84ZM505.58,253.26A27.76,27.76,0,0,0,481.81,240H466.31a44,44,0,0,0-21.2,5.47,28,28,0,0,1,8.36,35l-25.61,51.21a103.77,103.77,0,0,1-93.32,57.67h53.33a103.77,103.77,0,0,0,93.32-57.67l25.61-51.21A27.77,27.77,0,0,0,505.58,253.26Z"/><path class="cls-6" d="M474.67,378.67a10.67,10.67,0,1,0,0,21.33,16,16,0,0,1,0,32H380.62l-21.84-42.67h-24L356.65,432H129.06l21.84-42.67h-24L105.1,432H58.67a10.67,10.67,0,1,0,0,21.33h416a37.33,37.33,0,0,0,0-74.67Z"/></svg>