<svg id="Layer_1" data-name="Layer 1" xmlns="http://www.w3.org/2000/svg" viewBox="0 0 512 512"><defs><style>.cls-1{fill:#dfe5e8;}.cls-2{fill:#d0d9dd;}.cls-3{fill:#adb8bc;}.cls-4{fill:#ffc84d;}.cls-5{fill:#74c666;}.cls-6{fill:#ffb232;}.cls-7{fill:#ea8849;}</style></defs><title>snow-globe-flat</title><path class="cls-1" d="M256,21.33C138.37,21.33,42.67,117,42.67,234.67S138.37,448,256,448s213.33-95.7,213.33-213.33S373.63,21.33,256,21.33Z"/><path class="cls-2" d="M469.13,232.89A217.13,217.13,0,0,0,468,211c-9.88-89.17-74.93-161.93-160.16-183.29A192.25,192.25,0,0,1,412.58,199c0,106.2-86.09,192.29-192.29,192.29A192.25,192.25,0,0,1,49.06,286.49c21.36,85.24,94.11,150.28,183.29,160.16a217.12,217.12,0,0,0,21.87,1.14C372.91,447.8,469.13,351.58,469.13,232.89Z"/><circle class="cls-3" cx="149.33" cy="282.67" r="10.67"/><circle class="cls-3" cx="208" cy="160" r="10.67"/><circle class="cls-3" cx="245.33" cy="96" r="10.67"/><circle class="cls-3" cx="144" cy="202.67" r="10.67"/><path class="cls-4" d="M420.8,476.68,396.38,402a10.66,10.66,0,0,0-10.14-7.35H125.76A10.66,10.66,0,0,0,115.62,402L91.2,476.68a10.67,10.67,0,0,0,10.14,14H410.67a10.67,10.67,0,0,0,10.14-14Z"/><path class="cls-5" d="M328.67,345.31l-37.53-46.65h18.4A10.67,10.67,0,0,0,318,281.48l-27.92-36.15h8.59a10.67,10.67,0,0,0,8.63-16.94l-42.67-58.67a10.67,10.67,0,0,0-17.26,0l-42.67,58.67a10.67,10.67,0,0,0,8.63,16.94h8.59L194,281.48a10.67,10.67,0,0,0,8.44,17.19h18.4l-37.53,46.65a10.67,10.67,0,0,0,8.31,17.35H320.36a10.67,10.67,0,0,0,8.31-17.35Z"/><circle class="cls-3" cx="357.33" cy="272" r="10.67"/><circle class="cls-3" cx="309.33" cy="138.67" r="10.67"/><circle class="cls-3" cx="357.33" cy="192" r="10.67"/><path class="cls-6" d="M367.72,480h53.54a10.58,10.58,0,0,0-.46-3.32L396.38,402a10.66,10.66,0,0,0-10.14-7.35H339.82Z"/><path class="cls-4" d="M21.33,490.67H10.67a10.67,10.67,0,0,1,0-21.33H21.33a10.67,10.67,0,0,1,0,21.33Z"/><path class="cls-4" d="M501.33,490.67H480a10.67,10.67,0,0,1,0-21.33h21.33a10.67,10.67,0,1,1,0,21.33Z"/><path class="cls-4" d="M442.67,490.67h-384a10.67,10.67,0,0,1,0-21.33h384a10.67,10.67,0,0,1,0,21.33Z"/><rect class="cls-7" x="245.33" y="362.67" width="21.33" height="32"/></svg>