<svg id="Layer_1" data-name="Layer 1" xmlns="http://www.w3.org/2000/svg" viewBox="0 0 512 512"><defs><style>.cls-1{fill:#f4536a;}.cls-2{fill:#ee374b;}.cls-3{fill:#ffc84d;}.cls-4{fill:#adb8bc;}.cls-5{fill:#ffb232;}</style></defs><title>gift-flat</title><path class="cls-1" d="M106.67,298.67V501.33A10.67,10.67,0,0,0,117.33,512H394.67a10.67,10.67,0,0,0,10.67-10.67V298.67Z"/><polygon class="cls-2" points="122.46 298.67 106.67 298.67 106.67 330.67 224 330.67 224 298.67 136 298.67 122.46 298.67"/><polygon class="cls-2" points="303.8 298.67 288 298.67 288 330.67 405.33 330.67 405.33 298.67 317.33 298.67 303.8 298.67"/><path class="cls-3" d="M293.33,133.33A47.92,47.92,0,0,0,256,151.21a48,48,0,1,0-37.33,78.12h74.67a48,48,0,0,0,0-96ZM192,181.33a26.67,26.67,0,1,1,53.33,0V208H218.67A26.7,26.7,0,0,1,192,181.33ZM293.33,208H266.67V181.33A26.67,26.67,0,1,1,293.33,208Z"/><rect class="cls-1" x="74.67" y="208" width="362.67" height="90.67" rx="21.33" ry="21.33"/><path class="cls-1" d="M21.33,512H10.67a10.67,10.67,0,1,1,0-21.33H21.33a10.67,10.67,0,1,1,0,21.33Z"/><path class="cls-1" d="M432,512H58.67a10.67,10.67,0,1,1,0-21.33H432A10.67,10.67,0,1,1,432,512Z"/><path class="cls-1" d="M501.33,512h-32a10.67,10.67,0,0,1,0-21.33h32a10.67,10.67,0,1,1,0,21.33Z"/><path class="cls-4" d="M436.42,128l8.46-8.46a10.67,10.67,0,1,0-15.08-15.08l-8.46,8.46-8.46-8.46a10.67,10.67,0,1,0-15.08,15.08l8.46,8.46-8.46,8.46a10.67,10.67,0,1,0,15.08,15.08l8.46-8.46,8.46,8.46a10.67,10.67,0,1,0,15.08-15.08Z"/><path class="cls-4" d="M180.42,26.67l8.46-8.46A10.67,10.67,0,0,0,173.79,3.13l-8.46,8.46-8.46-8.46a10.67,10.67,0,1,0-15.08,15.08l8.46,8.46-8.46,8.46a10.67,10.67,0,1,0,15.08,15.08l8.46-8.46,8.46,8.46a10.67,10.67,0,0,0,15.08-15.08Z"/><circle class="cls-4" cx="106.67" cy="128" r="10.67"/><circle class="cls-4" cx="288" cy="74.67" r="10.67"/><rect class="cls-3" x="224" y="208" width="64" height="282.67"/><polygon class="cls-5" points="279.38 298.67 288 298.67 288 330.67 224 330.67 224 298.67 272 298.67 279.38 298.67"/></svg>