<svg id="Layer_1" data-name="Layer 1" xmlns="http://www.w3.org/2000/svg" viewBox="0 0 512 512"><defs><style>.cls-1{fill:#74c666;}.cls-2{fill:#54af47;}.cls-3{fill:#e54262;}.cls-4{fill:#ffc84d;}.cls-5{fill:#f4536a;}.cls-6{fill:#dfe5e8;}.cls-7{fill:#d0d9dd;}.cls-8{fill:#ee374b;}.cls-9{fill:#d8355b;}.cls-10{fill:#ffb232;}</style></defs><title>notebook-flat</title><path class="cls-1" d="M480,354.67V120a48.05,48.05,0,0,0-48-48H80a48.05,48.05,0,0,0-48,48V354.67Z"/><path class="cls-2" d="M480,354.67V120a47.93,47.93,0,0,0-20.08-39L186.28,354.67Z"/><path class="cls-3" d="M314.67,306.67H197.33a16,16,0,0,1-16-16v-64H330.67v64A16,16,0,0,1,314.67,306.67Z"/><path class="cls-4" d="M277.33,194.67H234.67A32,32,0,1,1,256,138.83a32,32,0,1,1,21.33,55.83Zm-10.67-21.33h10.67a10.67,10.67,0,1,0-10.67-10.67Zm-32-21.33a10.67,10.67,0,1,0,0,21.33h10.67V162.67A10.68,10.68,0,0,0,234.67,152Z"/><rect class="cls-5" x="165.33" y="184" width="181.33" height="42.67" rx="10.67" ry="10.67"/><rect class="cls-4" x="240" y="184" width="32" height="122.67"/><path class="cls-6" d="M501.33,354.67H10.67A10.67,10.67,0,0,0,0,365.33,74.75,74.75,0,0,0,74.67,440H437.33A74.75,74.75,0,0,0,512,365.33,10.67,10.67,0,0,0,501.33,354.67Z"/><path class="cls-7" d="M444.89,418.67H67.11A78.67,78.67,0,0,1,3,386.23,74.76,74.76,0,0,0,74.67,440H437.33A74.76,74.76,0,0,0,509,386.23,78.67,78.67,0,0,1,444.89,418.67Z"/><path class="cls-8" d="M346.67,195.3,315.3,226.67H336A10.67,10.67,0,0,0,346.67,216Z"/><path class="cls-9" d="M330.67,290.67v-64H315.3l-80,80h79.37A16,16,0,0,0,330.67,290.67Z"/><polygon class="cls-10" points="272 269.97 272 306.67 240 306.67 240 301.97 272 269.97"/></svg>