<svg id="Layer_1" data-name="Layer 1" xmlns="http://www.w3.org/2000/svg" viewBox="0 0 512 512"><defs><style>.cls-1{fill:#74c666;}.cls-2{fill:#dfe5e8;}.cls-3{fill:#54af47;}.cls-4{fill:#adb8bc;}.cls-5{fill:#d0d9dd;}.cls-6{fill:#e54262;}.cls-7{fill:#fff;}.cls-8{fill:#ffc84d;}.cls-9{fill:#f4536a;}</style></defs><title>phone-flat</title><rect class="cls-1" x="138.67" y="144" width="234.67" height="224"/><path class="cls-2" d="M325.33,48H186.67a48.05,48.05,0,0,0-48,48v48H373.33V96A48.05,48.05,0,0,0,325.33,48Z"/><path class="cls-2" d="M138.67,416a48.05,48.05,0,0,0,48,48H325.33a48.05,48.05,0,0,0,48-48V368H138.67Z"/><polygon class="cls-3" points="373.33 144 373.33 368 169.28 368 364.05 144 373.33 144"/><path class="cls-2" d="M26.67,464h-16a10.67,10.67,0,1,1,0-21.33h16a10.67,10.67,0,1,1,0,21.33Z"/><path class="cls-2" d="M448,464H325.33a10.67,10.67,0,0,1,0-21.33H448A10.67,10.67,0,1,1,448,464Z"/><path class="cls-2" d="M501.33,464h-16a10.67,10.67,0,0,1,0-21.33h16a10.67,10.67,0,1,1,0,21.33Z"/><path class="cls-2" d="M112,464H64a10.67,10.67,0,1,1,0-21.33h48A10.67,10.67,0,1,1,112,464Z"/><path class="cls-4" d="M266.67,106.67H245.33a10.67,10.67,0,0,1,0-21.33h21.33a10.67,10.67,0,0,1,0,21.33Z"/><circle class="cls-4" cx="256" cy="416" r="10.67"/><path class="cls-5" d="M336,368h37.33v48a48.05,48.05,0,0,1-48,48H288a48.05,48.05,0,0,0,48-48ZM325.33,48H288a48.05,48.05,0,0,1,48,48v48h37.33V96A48.05,48.05,0,0,0,325.33,48Z"/><path class="cls-6" d="M432,341.33H314.67a16,16,0,0,1-16-16v-64H448v64A16,16,0,0,1,432,341.33Z"/><path class="cls-7" d="M373.33,218.67H352a21.33,21.33,0,1,1,21.33-21.33Z"/><path class="cls-8" d="M394.67,229.33H352a32,32,0,1,1,21.33-55.83,32,32,0,1,1,21.33,55.83ZM384,208h10.67A10.67,10.67,0,1,0,384,197.33Zm-32-21.33A10.67,10.67,0,1,0,352,208h10.67V197.33A10.68,10.68,0,0,0,352,186.67Z"/><rect class="cls-9" x="282.67" y="218.67" width="181.33" height="42.67" rx="10.67" ry="10.67"/><rect class="cls-8" x="357.33" y="218.67" width="32" height="122.67"/></svg>