<svg id="Layer_1" data-name="Layer 1" xmlns="http://www.w3.org/2000/svg" viewBox="0 0 512 512"><defs><style>.cls-1{fill:#ea8849;}.cls-2{fill:#74c666;}.cls-3{fill:#dd6f31;}.cls-4{fill:#dfe5e8;}.cls-5{fill:#54af47;}.cls-6{fill:#d0d9dd;}</style></defs><title>tree-flat</title><rect class="cls-1" x="224" y="441.65" width="64" height="48"/><path class="cls-2" d="M424.61,392.09l-62-94.91H149.41l-62,94.88a32,32,0,0,0,26.73,49.6H397.86a32,32,0,0,0,26.74-49.57Z"/><path class="cls-2" d="M395.74,246.62,333.49,159h-155l-62.25,87.64a32,32,0,0,0,26.09,50.55h227.3a32,32,0,0,0,26.09-50.55Z"/><rect class="cls-3" x="256" y="441.65" width="32" height="48"/><path class="cls-4" d="M26.67,511h-16a10.67,10.67,0,0,1,0-21.33h16a10.67,10.67,0,0,1,0,21.33Z"/><path class="cls-4" d="M448,511H133.33a10.67,10.67,0,0,1,0-21.33H448A10.67,10.67,0,0,1,448,511Z"/><path class="cls-4" d="M501.33,511h-16a10.67,10.67,0,0,1,0-21.33h16a10.67,10.67,0,1,1,0,21.33Z"/><path class="cls-4" d="M96,511H64a10.67,10.67,0,0,1,0-21.33H96A10.67,10.67,0,0,1,96,511Z"/><path class="cls-2" d="M360.14,106.28l-79.75-94a32,32,0,0,0-48.79,0l-79.73,94-.86,1.1h0A32,32,0,0,0,176.27,159H335.73a17.86,17.86,0,0,0,1.82-.08,32,32,0,0,0,22.58-52.62Z"/><path class="cls-5" d="M429.71,412.75c-.05.75-.16,1.44-.27,2.19s-.32,1.65-.53,2.45c-.16.59-.32,1.12-.48,1.71a29.94,29.94,0,0,1-2.4,5.76,31.43,31.43,0,0,1-4.16,6,23.72,23.72,0,0,1-2.29,2.35l-.16.16a21,21,0,0,1-2.4,1.92l-.27.27c-1,.64-1.92,1.23-2.88,1.81a35.18,35.18,0,0,1-17.12,4.32H373.87A32.89,32.89,0,0,0,385,395L341.6,328.64A21.19,21.19,0,0,0,323.79,319H135.15l14.24-21.81H348a33.18,33.18,0,0,0,8.48-46.88l-43.31-61a21.46,21.46,0,0,0-17.44-9H163.36L178.51,159H312.69a32.83,32.83,0,0,0,9.71-50.19L240.75,12.53a37.11,37.11,0,0,0-4.69-4.48,31.92,31.92,0,0,1,44.32,4.21l79.79,94a32,32,0,0,1-22.61,52.59,10.34,10.34,0,0,1-1.81.11h-2.24l62.24,87.63a31.64,31.64,0,0,1,5.92,18.61c0,.75-.05,1.49-.11,2.24a13.74,13.74,0,0,1-.21,2.08.68.68,0,0,1-.05.32,9.9,9.9,0,0,1-.32,1.81,6.25,6.25,0,0,1-.21,1c-.11.64-.32,1.23-.48,1.87-.37,1.12-.75,2.29-1.23,3.41-.32.64-.64,1.33-1,2a18,18,0,0,1-1.28,2.19,5.36,5.36,0,0,1-.43.75,18.6,18.6,0,0,1-2,2.61,23.93,23.93,0,0,1-1.92,2.13,34.13,34.13,0,0,1-24.05,9.6h-5.87l62,94.93A31.43,31.43,0,0,1,429.71,412.75Z"/><path class="cls-4" d="M280.39,12.29a32,32,0,0,0-48.79,0L165.16,90.61c14,5.67,31.67,8.66,52.75,4,33-7.34,78.43-20.86,119.84-14.69Z"/><path class="cls-4" d="M378.3,222.08c-13.61,13.87-30.38,27.1-55.1,31.81-40.69,7.67-56.82-16.7-116.08-28.43a267.76,267.76,0,0,0-73-4l-17.91,25.22a32,32,0,0,0,26.09,50.55h227.3a32,32,0,0,0,26.09-50.55Z"/><path class="cls-4" d="M424.61,392.09l-19.85-30.37c-28.82,16.56-62.41,36-113.21,30.48-45.62-5-58.89-24.95-118.5-27.57a280.12,280.12,0,0,0-71.73,6.14L87.41,392.05a32,32,0,0,0,26.73,49.6H397.86a32,32,0,0,0,26.74-49.57Z"/><path class="cls-6" d="M351.54,243.34l5,7A33.25,33.25,0,0,1,348,297.17h21.63a32,32,0,0,0,26.09-50.55L378.3,222.08A124,124,0,0,1,351.54,243.34Z"/><path class="cls-6" d="M250.15,1.59a31.85,31.85,0,0,0-4.75,1.24l-.08,0A32,32,0,0,0,240.66,5l-.25.13A32.44,32.44,0,0,0,236,8a32.82,32.82,0,0,1,4.72,4.51l56.53,66.62a171.69,171.69,0,0,1,40.47.71l-57.36-67.6A31.49,31.49,0,0,0,251.11,1.43Z"/><path class="cls-6" d="M424.61,392.09l-19.85-30.37c-9.58,5.51-19.71,11.31-30.8,16.42L385,395a32.94,32.94,0,0,1-11.1,46.66h24a32,32,0,0,0,26.74-49.57Z"/></svg>