<svg id="Layer_1" data-name="Layer 1" xmlns="http://www.w3.org/2000/svg" viewBox="0 0 512 512"><defs><style>.cls-1{fill:#e85454;}.cls-2{fill:#ea8d28;}.cls-3{fill:#ffa840;}.cls-4{fill:#c15d25;}</style></defs><title>medal-1-flat</title><path class="cls-1" d="M264.83,319.75l-67,184a12.5,12.5,0,0,1-21.45,3.6l-28.38-35a12.5,12.5,0,0,0-12.08-4.4l-44.24,8.57A12.5,12.5,0,0,1,77.57,460l67-184a12.5,12.5,0,0,1,16-7.47l96.79,35.23A12.5,12.5,0,0,1,264.83,319.75Z"/><path class="cls-1" d="M247.17,319.75l67,184a12.5,12.5,0,0,0,21.45,3.6l28.38-35a12.5,12.5,0,0,1,12.08-4.4l44.24,8.57A12.5,12.5,0,0,0,434.43,460l-67-184a12.5,12.5,0,0,0-16-7.47l-96.79,35.23A12.5,12.5,0,0,0,247.17,319.75Z"/><circle class="cls-2" cx="256" cy="204.8" r="204.8"/><circle class="cls-3" cx="256" cy="204.8" r="153.6"/><path class="cls-4" d="M274.39,140.8c5.45,0,7.21,1.76,7.21,7.22V261.58c0,5.45-1.75,7.22-7.21,7.22H260.14c-5.45,0-7.21-1.76-7.21-7.22V176l-17.06,9.68c-4.76,2.82-8.45,1.94-10.91-2.81l-6.16-11.09c-2.28-4.75-1.4-6.86,3.52-9.68l31.84-18.47a19,19,0,0,1,10.2-2.82Z"/></svg>