<svg id="Layer_1" data-name="Layer 1" xmlns="http://www.w3.org/2000/svg" viewBox="0 0 512 512"><defs><style>.cls-1{fill:#adb8bc;}.cls-2{fill:#dfe5e8;}.cls-3{fill:#d0d9dd;}</style></defs><title>snow-flake-flat</title><path class="cls-1" d="M395.27,285.71l-62.5,11L274.6,256l58.17-40.73,62.5,11a10.82,10.82,0,0,0,1.86.16A10.67,10.67,0,0,0,399,205.28L357.48,198l35.7-25-12.23-17.48-35.7,25L352.56,139a10.67,10.67,0,0,0-21-3.71l-11,62.5-53.87,37.72V169.75l44.88-44.87a10.67,10.67,0,1,0-15.08-15.08l-29.79,29.79V96H245.33v43.58l-29.79-29.79a10.67,10.67,0,0,0-15.08,15.08l44.88,44.88v65.76l-53.87-37.72-11-62.5a10.67,10.67,0,0,0-21,3.71l7.32,41.49-35.7-25L118.82,173l35.7,25L113,205.28a10.67,10.67,0,0,0,1.84,21.17,10.82,10.82,0,0,0,1.86-.16l62.5-11L237.4,256l-58.17,40.73-62.5-11a10.67,10.67,0,1,0-3.7,21L154.51,314l-35.7,25L131,356.51l35.7-25L159.44,373a10.67,10.67,0,0,0,8.65,12.36,10.82,10.82,0,0,0,1.86.16,10.67,10.67,0,0,0,10.49-8.81l11-62.5,53.87-37.72v65.76l-44.87,44.88a10.67,10.67,0,0,0,15.08,15.08l29.79-29.79V416h21.33V372.42l29.79,29.79a10.67,10.67,0,1,0,15.08-15.08l-44.87-44.87V276.49l53.87,37.72,11,62.5A10.67,10.67,0,0,0,342,385.52a10.82,10.82,0,0,0,1.86-.16A10.67,10.67,0,0,0,352.56,373l-7.32-41.49,35.7,25L393.18,339l-35.7-25L399,306.72a10.67,10.67,0,1,0-3.7-21Z"/><path class="cls-2" d="M306.18,263.52l-42.67,42.67a10.56,10.56,0,0,1-15,0l-42.67-42.67a10.53,10.53,0,0,1,0-15l42.67-42.67a10.56,10.56,0,0,1,15,0l42.67,42.67A10.53,10.53,0,0,1,306.18,263.52Z"/><path class="cls-2" d="M306.18,60.85l-42.67,42.67a10.56,10.56,0,0,1-15,0L205.81,60.85a10.53,10.53,0,0,1,0-15L248.48,3.15a10.56,10.56,0,0,1,15,0l42.67,42.67A10.53,10.53,0,0,1,306.18,60.85Z"/><path class="cls-2" d="M306.18,466.19l-42.67,42.67a10.56,10.56,0,0,1-15,0l-42.67-42.67a10.53,10.53,0,0,1,0-15l42.67-42.67a10.56,10.56,0,0,1,15,0l42.67,42.67A10.53,10.53,0,0,1,306.18,466.19Z"/><path class="cls-3" d="M306.18,451.15a10.53,10.53,0,0,1,0,15l-42.67,42.67A10.63,10.63,0,0,1,256,512V405.33a10.63,10.63,0,0,1,7.52,3.15Z"/><path class="cls-3" d="M306.18,248.48a10.53,10.53,0,0,1,0,15l-42.67,42.67a10.63,10.63,0,0,1-7.52,3.15V202.67a10.63,10.63,0,0,1,7.52,3.15Z"/><path class="cls-3" d="M263.52,103.52a10.63,10.63,0,0,1-7.52,3.15V0a10.63,10.63,0,0,1,7.52,3.15l42.67,42.67a10.53,10.53,0,0,1,0,15Z"/><path class="cls-2" d="M444.64,185.18,385.22,174.7a10.56,10.56,0,0,1-8.63-12.32L387.07,103a10.53,10.53,0,0,1,12.32-8.63l59.42,10.48a10.56,10.56,0,0,1,8.63,12.32L457,176.55A10.53,10.53,0,0,1,444.64,185.18Z"/><path class="cls-2" d="M112.61,417.67,53.19,407.19a10.56,10.56,0,0,1-8.63-12.32L55,335.45a10.53,10.53,0,0,1,12.32-8.63l59.42,10.48a10.56,10.56,0,0,1,8.63,12.32L124.93,409A10.53,10.53,0,0,1,112.61,417.67Z"/><path class="cls-3" d="M124.93,409a10.53,10.53,0,0,1-12.32,8.63L53.19,407.19a10.63,10.63,0,0,1-6.89-4.35l87.38-61.18a10.63,10.63,0,0,1,1.74,8Z"/><path class="cls-3" d="M385.22,174.7a10.63,10.63,0,0,1-6.89-4.35l87.38-61.18a10.63,10.63,0,0,1,1.74,8L457,176.55a10.53,10.53,0,0,1-12.32,8.63Z"/><path class="cls-2" d="M124.93,103l10.48,59.43a10.56,10.56,0,0,1-8.63,12.32L67.36,185.18A10.53,10.53,0,0,1,55,176.55L44.56,117.13a10.56,10.56,0,0,1,8.63-12.32l59.42-10.48A10.53,10.53,0,0,1,124.93,103Z"/><path class="cls-2" d="M457,335.46l10.48,59.43a10.56,10.56,0,0,1-8.63,12.32l-59.42,10.48a10.53,10.53,0,0,1-12.32-8.63l-10.48-59.43a10.56,10.56,0,0,1,8.63-12.32l59.42-10.48A10.53,10.53,0,0,1,457,335.46Z"/><path class="cls-3" d="M444.64,326.83A10.53,10.53,0,0,1,457,335.46l10.48,59.43a10.63,10.63,0,0,1-1.74,8l-87.38-61.19a10.63,10.63,0,0,1,6.89-4.36Z"/><path class="cls-3" d="M135.41,162.38a10.63,10.63,0,0,1-1.74,8L46.3,109.16a10.63,10.63,0,0,1,6.89-4.36l59.42-10.48A10.53,10.53,0,0,1,124.93,103Z"/></svg>