<svg id="Layer_1" data-name="Layer 1" xmlns="http://www.w3.org/2000/svg" viewBox="0 0 512 512"><defs><style>.cls-1{fill:#ffc84d;}.cls-2{fill:#ffb232;}.cls-3{fill:#f4536a;}.cls-4{fill:#65b554;}.cls-5{fill:#74c666;}</style></defs><title>speech-bubbles-flat</title><path class="cls-1" d="M469.33,179.12h-272a42.72,42.72,0,0,0-42.67,42.67V371.12a42.72,42.72,0,0,0,42.67,42.67H384.91l73.75,73.75V413.79h10.67A42.72,42.72,0,0,0,512,371.12V221.79A42.72,42.72,0,0,0,469.33,179.12Z"/><path class="cls-1" d="M512,221.79V371.12a42.72,42.72,0,0,1-42.67,42.67H458.67v73.76l-73.76-73.76H197.33a42.72,42.72,0,0,1-42.67-42.67V221.79a42.72,42.72,0,0,1,42.67-42.67h272A42.72,42.72,0,0,1,512,221.79Z"/><path class="cls-2" d="M437.33,179.12V285.79A53.35,53.35,0,0,1,384,339.12H154.67V221.79a42.72,42.72,0,0,1,42.67-42.67Z"/><path class="cls-3" d="M373.33,24.45H42.67A42.72,42.72,0,0,0,0,67.12v208a42.72,42.72,0,0,0,42.67,42.67H53.33v48a10.67,10.67,0,0,0,18.21,7.54l55.54-55.54H373.33A42.72,42.72,0,0,0,416,275.12v-208A42.72,42.72,0,0,0,373.33,24.45Z"/><path class="cls-4" d="M138.67,179.12H277.33a0,0,0,0,1,0,0v58.67a10.67,10.67,0,0,1-10.67,10.67H149.33a10.67,10.67,0,0,1-10.67-10.67V179.12A0,0,0,0,1,138.67,179.12Z"/><path class="cls-1" d="M229.33,147.12H186.67A32,32,0,1,1,208,91.29a32,32,0,1,1,21.33,55.83Zm-10.67-21.33h10.67a10.67,10.67,0,1,0-10.67-10.67Zm-32-21.33a10.67,10.67,0,0,0,0,21.33h10.67V115.12A10.68,10.68,0,0,0,186.67,104.45Z"/><rect class="cls-5" x="122.67" y="136.45" width="170.67" height="42.67" rx="5.33" ry="5.33"/><rect class="cls-1" x="192" y="136.45" width="32" height="112"/></svg>