<svg id="Layer_1" data-name="Layer 1" xmlns="http://www.w3.org/2000/svg" viewBox="0 0 512 512"><defs><style>.cls-1{fill:#f4536a;}.cls-2{fill:#bf3455;}.cls-3{fill:#74c666;}.cls-4{fill:#418c34;}.cls-5{fill:#adb8bc;}.cls-6{fill:#ee374b;}</style></defs><title>sweater-flat</title><path class="cls-1" d="M458.67,208V394.67A26.68,26.68,0,0,1,432,421.33H384v64a26.67,26.67,0,0,1-21.33,26.13,25.11,25.11,0,0,1-5.33.53H154.67a25.11,25.11,0,0,1-5.33-.53A26.67,26.67,0,0,1,128,485.33v-64H80a26.68,26.68,0,0,1-26.67-26.67V208a128,128,0,0,1,128-128H192V90.67a64,64,0,0,0,128,0V80h10.67C401.23,80,458.67,137.44,458.67,208Z"/><path class="cls-2" d="M373.33,218.67a10.7,10.7,0,0,0-10.67,10.67V511.47A26.67,26.67,0,0,0,384,485.33v-256A10.7,10.7,0,0,0,373.33,218.67Zm-234.67,0A10.7,10.7,0,0,0,128,229.33v256a26.67,26.67,0,0,0,21.33,26.13V229.33A10.7,10.7,0,0,0,138.67,218.67Z"/><polygon class="cls-3" points="373.33 336 330.67 357.33 293.33 336 255.97 357.33 218.67 336 181.33 357.33 138.67 336 138.67 256 181.33 277.33 218.67 256 255.97 277.33 293.33 256 330.67 277.33 373.33 256 373.33 336"/><path class="cls-2" d="M256,368a10.67,10.67,0,0,1-5.3-1.41l-32-18.31-32,18.31a10.67,10.67,0,0,1-10.06.28L133.9,345.54A10.67,10.67,0,0,1,128,336V256a10.67,10.67,0,0,1,15.44-9.54L181,265.24l32.38-18.5a10.67,10.67,0,0,1,10.59,0L256,265,288,246.74a10.65,10.65,0,0,1,10.58,0L331,265.24l37.56-18.78A10.67,10.67,0,0,1,384,256v80a10.67,10.67,0,0,1-5.9,9.54l-42.67,21.33a10.67,10.67,0,0,1-10.06-.28l-32-18.31-32.07,18.31A10.67,10.67,0,0,1,256,368Zm37.36-42.67a10.65,10.65,0,0,1,5.29,1.41L331,345.24l31.67-15.83V273.26l-27.23,13.61a10.67,10.67,0,0,1-10.06-.28l-32-18.31-32.07,18.31a10.68,10.68,0,0,1-10.59,0l-32-18.31-32,18.31a10.67,10.67,0,0,1-10.06.28l-27.23-13.61v56.15L181,345.24l32.38-18.5a10.67,10.67,0,0,1,10.59,0L256,345,288,326.74A10.67,10.67,0,0,1,293.33,325.33Zm80,10.67h0Z"/><circle class="cls-2" cx="181.33" cy="410.67" r="10.67"/><circle class="cls-2" cx="218.67" cy="410.67" r="10.67"/><circle class="cls-2" cx="256" cy="410.67" r="10.67"/><circle class="cls-2" cx="293.33" cy="410.67" r="10.67"/><circle class="cls-2" cx="330.67" cy="410.67" r="10.67"/><circle class="cls-4" cx="181.33" cy="314.67" r="10.67"/><circle class="cls-4" cx="218.67" cy="298.67" r="10.67"/><circle class="cls-4" cx="256" cy="314.67" r="10.67"/><circle class="cls-4" cx="293.33" cy="298.67" r="10.67"/><circle class="cls-4" cx="330.67" cy="314.67" r="10.67"/><path class="cls-2" d="M170.67,80V90.67a85.33,85.33,0,1,0,170.67,0V80Z"/><path class="cls-5" d="M335.89,120.59a81.58,81.58,0,0,1-10.56,19.84l-69.39-12.27-69.65,11.63a84.24,84.24,0,0,1-10.45-19.89l69.49-11.57v-55A10.7,10.7,0,0,1,256,42.67a10.67,10.67,0,1,0,0-21.33,10.49,10.49,0,0,0-9.44,5.76,10.66,10.66,0,1,1-19.09-9.49A31.69,31.69,0,0,1,256,0a32,32,0,0,1,10.67,62.19v46.19Z"/><path class="cls-6" d="M341.33,80.48v6.9C391,105,426.67,152.4,426.67,208V394.67A26.68,26.68,0,0,1,400,421.33h32a26.68,26.68,0,0,0,26.67-26.67V208C458.67,141,406.92,85.92,341.33,80.48Z"/><path class="cls-2" d="M432,421.33H384v32h37.33A21.35,21.35,0,0,0,442.67,432V419.11A26.55,26.55,0,0,1,432,421.33Z"/><path class="cls-2" d="M128,421.33H80a26.55,26.55,0,0,1-10.67-2.23V432a21.35,21.35,0,0,0,21.33,21.33H128Z"/></svg>