<svg id="Layer_1" data-name="Layer 1" xmlns="http://www.w3.org/2000/svg" viewBox="0 0 512 512"><defs><style>.cls-1{fill:#ffa840;}.cls-2{fill:#c15d25;fill-rule:evenodd;}.cls-3{opacity:0.12;}.cls-4{fill:#17292d;}</style></defs><title>trophy-flat</title><path class="cls-1" d="M500.79,79.32A45.29,45.29,0,0,0,466.8,64H423.56q.24-9.54.26-19.2v-.46C423.8,19.77,403.38,0,378.6,0H133.4C108.62,0,88.2,19.77,88.18,44.34v.46q0,9.67.26,19.2H45.2A45,45,0,0,0,.42,115.06c13.06,95.32,74.26,174.53,157.15,214.77,17.31,26.32,37.1,45.9,58.5,56.86a99.32,99.32,0,0,1-2,10.11,102.64,102.64,0,0,1-57.7,67.78c-.06.06-.13.13-.19.06a24.64,24.64,0,0,0,2,45.89,24,24,0,0,0,8.33,1.47H345.4a24.81,24.81,0,0,0,11.94-46.66c-.77-.38-1.55-.7-2.32-1.09A102.57,102.57,0,0,1,298,396.8a99.27,99.27,0,0,1-2-10.11c21.4-11,41.19-30.54,58.5-56.86,82.89-40.24,144.09-119.46,157.15-214.77A44.85,44.85,0,0,0,500.79,79.32ZM26,111.61a19.38,19.38,0,0,1,4.66-15.45A19.14,19.14,0,0,1,45.2,89.6H89.53c4.59,75.77,20.67,144,44.46,196.81C76.68,246.6,36,184.25,26,111.61Zm460,0c-10,72.65-50.68,135-108,174.81,23.79-52.8,39.87-121,44.46-196.81H466.8a19.14,19.14,0,0,1,14.55,6.56A19.38,19.38,0,0,1,486,111.61Z"/><path class="cls-2" d="M268.51,110.42l9.14,19.09a14,14,0,0,0,10.5,7.87l20.44,3.06c11.44,1.71,16,16.21,7.73,24.53l-14.79,14.86a14.66,14.66,0,0,0-4,12.73l3.49,21c2,11.75-10,20.71-20.24,15.16l-18.28-9.91a13.58,13.58,0,0,0-13,0l-18.28,9.91C221,234.26,209,225.3,211,213.55l3.49-21a14.66,14.66,0,0,0-4-12.73L195.68,165c-8.28-8.32-3.71-22.82,7.73-24.53l20.44-3.06a14,14,0,0,0,10.5-7.87l9.14-19.09A13.77,13.77,0,0,1,268.51,110.42Z"/><g class="cls-3"><path class="cls-4" d="M378.6,0H301.15c24.78,0,45.2,19.77,45.22,44.34v.46c0,166.43-55.09,305.79-129.09,342.47A86.64,86.64,0,0,0,256,396.8c92.68,0,167.82-157.6,167.82-352v-.46C423.8,19.77,403.38,0,378.6,0Z"/></g></svg>